<?xml version="1.0" encoding="utf-8"?>
<!DOCTYPE svg PUBLIC "-//W3C//DTD SVG 1.1//EN" "http://www.w3.org/Graphics/SVG/1.1/DTD/svg11.dtd">
<svg version="1.1" xmlns="http://www.w3.org/2000/svg" xmlns:xlink="http://www.w3.org/1999/xlink" width="1536" height="1024" viewBox="0 0 1536 1024"><g id="icomoon-ignore">
</g>
<path fill="rgb(0, 0, 0)" d="M819.59 496.316c-4.822-2.195-9.059-4.974-14.030-7.014 2.553-3.722 10.065-3.786 9.080-9.905-0.934-5.789-14.036-4.242-18.572-1.651-1.060 3.062 2.267 3.537 2.889 6.19 1.147 4.883-1.442 11.709 1.651 16.095 4.189 0.462 1.865-4.813 2.063-7.428 5.737 0.472 10.083 5.857 16.918 6.603 0 21.46 0 42.919 0 64.377-34.391 0-68.782 0-103.171 0 0-24.347 0-48.697 0-73.043 1.402 12.344 13.9 9.806 16.507 1.238 1.507-4.958 0.591-14.56-4.541-15.685-6.342-1.387-10.824 4.34-11.967 11.555 0-9.080 0-18.158 0-27.234 34.391 0 68.781 0 103.171 0 0 11.967 0 23.936 0 35.905zM777.492 490.954c3.523-8.978-4.661-14.010-14.033-13.619-1.382-0.404-1.789-1.786-3.302-2.061-0.342 1.997-3.667 1.010-4.129 2.891-0.13 0.559-0.586 0.788-0.414 1.651 0.274 1.788 3.049 1.078 3.712 2.473-0.091 5.021 2.135 11.555-1.238 14.033-4.033-3.124-9.842-4.465-13.619-7.842 4.23-2.237 9.483-3.451 9.492-9.905-1.893-4.12-18.222-3.88-18.985 0-0.549 2.786 6.628 6.447 2.473 10.729 2.547 2.364-0.106 8.259 1.652 10.731 4.997 0.503 2.456-4.147 2.889-7.842 6.525 1.728 10.001 6.508 17.743 7.014 0.975 0.538 0.406 2.62 2.061 2.473 4.093-4.506 13.343-4.764 15.684-10.729zM783.271 476.51c-3.375 1.066-1.524 3.898-1.238 6.603 0.586 5.545-2.375 12.729 0.826 16.919 1.501 0.915 3.651-0.773 6.189-1.238 2.84-0.523 7.516 0.622 6.603-3.712-3.981-0.516-7.907 1.921-10.729 0 0-1.376 0-2.751 0-4.129 2.168-2.509 8.863-0.491 9.492-4.541-2.607-1.494-6.843 1.119-9.492-0.412-0.043-2.243 0.139-4.262 1.238-5.365 2.596-1.454 6.727 0.798 9.078-0.412-0.175-3.332-8.833-4.704-11.967-3.712zM725.082 526.444c3.876 3.554 0.513 15.413 2.889 19.396 1.783 0.269 2.313-0.711 3.302-1.238-0.125-2.351-0.795-4.159-0.826-6.603 2.854-1.823 8.385-0.97 11.142-2.889-1.348-3.959-8.568 0.485-11.142-2.063-0.425-1.086-0.493-2.531-0.414-4.129 2.703-2.62 7.7-1.28 11.554-2.061 0.463-5.338-6.982-1.956-9.905-2.063-1.299-0.076-0.527-2.223-2.061-2.061-2.868-0.115-2.442 3.061-4.541 3.712zM761.397 525.619c-0.549 2.786 6.628 6.447 2.473 10.729 2.547 2.364-0.106 8.259 1.651 10.729 4.994 0.503 2.456-4.143 2.889-7.842 5.275 2.019 9.932 4.651 14.855 7.014 3.611-0.666 2.473-0.078 5.778 0.414 3.297-4.218-1.162-9.29 0-15.271 2.842 1.973 2.924 6.708 6.19 8.255 3.73-1.084 3.421-6.213 5.778-8.666 1.973 5.039 0.102 13.931 4.953 16.095 3.139-3.414-1.203-9.527-1.652-15.684-0.261-3.58 0.886-5.649 0-8.253-6.661-3.468-5.166 10.47-9.078 10.316-2.008-0.079-4.203-8.921-5.778-9.078-1.691-0.042-3.383-0.081-4.541 0.412 0.015 5.562 1.397 13.139 1.652 19.807-4.606-3.646-11.174-5.334-15.685-9.078 4.23-2.237 9.483-3.451 9.492-9.905-1.893-4.119-18.22-3.88-18.985 0zM750.664 546.665c10.121-0.046 13.223-22.795 2.889-23.522-3.71-0.262-5.006 1.996-8.255 3.712-3.722 6.474-2.716 19.847 5.365 19.807z"></path>
<path fill="rgb(255, 255, 255)" d="M761.81 501.684c-1.657 0.143-1.090-1.937-2.063-2.473-7.745-0.509-11.219-5.285-17.745-7.014-0.433 3.693 2.105 8.345-2.889 7.842-1.758-2.473 0.895-8.365-1.651-10.729 4.157-4.281-3.025-7.943-2.473-10.729 0.762-3.88 17.091-4.119 18.985 0-0.015 6.455-5.262 7.669-9.492 9.905 3.78 3.375 9.587 4.721 13.619 7.842 3.372-2.473 1.148-9.006 1.24-14.033-0.666-1.397-3.441-0.687-3.712-2.473-0.173-0.86 0.283-1.093 0.412-1.651 0.462-1.877 3.785-0.892 4.129-2.889 1.511 0.278 1.919 1.658 3.302 2.061 9.371-0.39 17.553 4.64 14.033 13.619-2.343 5.967-11.591 6.226-15.684 10.729zM742.002 478.985c-1.217 1.38-1.024 5.487-0.414 7.428 3.479-1.335 7.106-2.523 8.253-6.19-1.425-1.603-4.836-1.217-7.842-1.238zM762.635 480.223c-0.975 5.274-0.216 12.297 1.651 16.095 13.594-1.454 13.627-17.243-1.651-16.095z"></path>
<path fill="rgb(255, 255, 255)" d="M819.59 496.316c0 0.963 0 1.927 0 2.891-6.836-0.746-11.183-6.131-16.918-6.604-0.198 2.615 2.127 7.889-2.061 7.428-3.092-4.381-0.503-11.209-1.651-16.095-0.625-2.653-3.949-3.129-2.889-6.19 4.534-2.589 17.636-4.138 18.573 1.651 0.986 6.117-6.526 6.185-9.078 9.905 4.974 2.042 9.209 4.819 14.030 7.014zM802.253 479.398c0.205 2.267-0.453 5.407 0.414 7.014 3.222-1.595 7.557-2.073 7.842-6.603-1.891-0.807-5.969-1.337-8.253-0.412z"></path>
<path fill="rgb(255, 255, 255)" d="M716.41 490.54c0-0.963 0-1.927 0-2.889 1.147-7.217 5.626-12.945 11.967-11.555 5.134 1.123 6.047 10.725 4.541 15.685-2.607 8.571-15.108 11.107-16.507-1.238zM723.428 480.638c-5.313 2.767-5.036 14.618 0.826 15.271 5.542 0.615 8.277-8.882 5.365-14.444-2.695 1.233-3.739-0.684-6.19-0.826z"></path>
<path fill="rgb(255, 255, 255)" d="M795.234 480.223c-2.351 1.212-6.483-1.038-9.080 0.412-1.096 1.106-1.281 3.123-1.238 5.365 2.649 1.532 6.884-1.081 9.492 0.412-0.626 4.051-7.323 2.030-9.492 4.541 0 1.376 0 2.751 0 4.129 2.823 1.921 6.747-0.516 10.729 0 0.914 4.338-3.764 3.19-6.603 3.712-2.535 0.466-4.69 2.151-6.189 1.24-3.203-4.191-0.239-11.372-0.826-16.919-0.286-2.705-2.137-5.538 1.238-6.603 3.136-0.991 11.793 0.383 11.967 3.712z"></path>
<path fill="rgb(0, 0, 0)" d="M749.844 480.223c-1.148 3.668-4.774 4.856-8.255 6.19-0.607-1.94-0.805-6.046 0.414-7.428 3.007 0.024 6.417-0.363 7.842 1.238z"></path>
<path fill="rgb(0, 0, 0)" d="M810.506 479.811c-0.283 4.53-4.621 5.010-7.842 6.603-0.866-1.606-0.207-4.747-0.412-7.014 2.284-0.924 6.362-0.397 8.253 0.412z"></path>
<path fill="rgb(0, 0, 0)" d="M764.288 496.316c-1.865-3.8-2.627-10.822-1.651-16.095 15.276-1.148 15.245 14.642 1.651 16.095z"></path>
<path fill="rgb(0, 0, 0)" d="M729.622 481.463c2.913 5.563 0.173 15.058-5.365 14.444-5.861-0.648-6.136-12.504-0.825-15.27 2.451 0.142 3.497 2.060 6.189 0.826z"></path>
<path fill="rgb(255, 255, 255)" d="M729.622 522.729c1.535-0.16 0.763 1.987 2.063 2.061 2.924 0.109 10.367-3.27 9.905 2.063-3.857 0.786-8.852-0.558-11.554 2.061-0.081 1.596-0.015 3.041 0.414 4.129 2.577 2.551 9.795-1.897 11.142 2.063-2.755 1.917-8.29 1.062-11.142 2.889 0.034 2.444 0.701 4.251 0.826 6.603-0.989 0.527-1.521 1.505-3.302 1.24-2.375-3.983 0.988-15.841-2.889-19.396 2.095-0.654 1.673-3.83 4.541-3.712z"></path>
<path fill="rgb(255, 255, 255)" d="M780.38 525.619c-0.015 6.453-5.262 7.669-9.492 9.905 4.508 3.744 11.074 5.433 15.684 9.078-0.254-6.673-1.646-14.248-1.651-19.807 1.157-0.495 2.848-0.453 4.541-0.412 1.575 0.16 3.767 9 5.778 9.078 3.911 0.155 2.415-13.784 9.078-10.316 0.886 2.605-0.261 4.671 0 8.253 0.449 6.153 4.789 12.269 1.651 15.685-4.852-2.163-2.979-11.052-4.953-16.096-2.358 2.46-2.046 7.582-5.777 8.666-3.27-1.546-3.349-6.28-6.19-8.253-1.162 5.978 3.297 11.048 0 15.271-3.306-0.493-2.163-1.076-5.778-0.412-4.928-2.364-9.583-4.998-14.856-7.014-0.433 3.693 2.105 8.343-2.889 7.842-1.758-2.471 0.895-8.365-1.652-10.729 4.157-4.277-3.025-7.943-2.473-10.729 0.762-3.88 17.090-4.12 18.985 0zM768.412 526.033c-1.217 1.382-1.024 5.487-0.412 7.428 3.479-1.337 7.108-2.524 8.253-6.189-1.425-1.6-4.836-1.217-7.842-1.238z"></path>
<path fill="rgb(255, 255, 255)" d="M745.302 526.856c3.249-1.721 4.543-3.977 8.255-3.712 10.335 0.732 7.232 23.476-2.889 23.522-8.079 0.039-9.086-13.332-5.365-19.807zM749.844 527.684c-5.313 2.767-5.036 14.616 0.826 15.271 5.542 0.615 8.277-8.881 5.366-14.444-2.695 1.231-3.739-0.685-6.19-0.825z"></path>
<path fill="rgb(0, 0, 0)" d="M776.253 527.271c-1.147 3.668-4.774 4.854-8.253 6.189-0.607-1.94-0.807-6.046 0.412-7.428 3.007 0.015 6.417-0.364 7.842 1.238z"></path>
<path fill="rgb(0, 0, 0)" d="M756.033 528.507c2.913 5.563 0.175 15.058-5.366 14.444-5.861-0.648-6.136-12.502-0.826-15.271 2.45 0.142 3.497 2.060 6.189 0.825z"></path>
</svg>
